<svg width="500" height="500" viewBox="0 0 500 500" fill="none" xmlns="http://www.w3.org/2000/svg">
<path d="M449.901 398.49H416.781V398.74H449.901V398.49Z" fill="#EBEBEB"/>
<path d="M331.221 401.21H322.531V401.46H331.221V401.21Z" fill="#EBEBEB"/>
<path d="M415.78 389.21H396.59V389.46H415.78V389.21Z" fill="#EBEBEB"/>
<path d="M95.6509 390.89H52.4609V391.14H95.6509V390.89Z" fill="#EBEBEB"/>
<path d="M110.889 390.89H104.559V391.14H110.889V390.89Z" fill="#EBEBEB"/>
<path d="M225.149 395.11H131.469V395.36H225.149V395.11Z" fill="#EBEBEB"/>
<path d="M238.4 337.8H45.2998C43.7855 337.8 42.3331 337.198 41.2623 336.128C40.1914 335.057 39.5898 333.604 39.5898 332.09V60.66C39.603 59.1543 40.2104 57.7147 41.2798 56.6547C42.3492 55.5947 43.7941 54.9999 45.2998 55H238.4C239.15 55 239.892 55.1477 240.585 55.4346C241.278 55.7216 241.907 56.1422 242.437 56.6724C242.968 57.2026 243.388 57.8321 243.675 58.5249C243.962 59.2176 244.11 59.9602 244.11 60.71V332.09C244.11 332.84 243.962 333.582 243.675 334.275C243.388 334.968 242.968 335.597 242.437 336.128C241.907 336.658 241.278 337.078 240.585 337.365C239.892 337.652 239.15 337.8 238.4 337.8ZM45.2998 55.2C43.8526 55.2026 42.4653 55.7787 41.442 56.8021C40.4186 57.8255 39.8425 59.2127 39.8398 60.66V332.09C39.8425 333.537 40.4186 334.924 41.442 335.948C42.4653 336.971 43.8526 337.547 45.2998 337.55H238.4C239.847 337.547 241.234 336.971 242.258 335.948C243.281 334.924 243.857 333.537 243.86 332.09V60.66C243.857 59.2127 243.281 57.8255 242.258 56.8021C241.234 55.7787 239.847 55.2026 238.4 55.2H45.2998Z" fill="#EBEBEB"/>
<path d="M454.701 337.8H261.601C260.086 337.8 258.634 337.198 257.563 336.128C256.492 335.057 255.891 333.604 255.891 332.09V60.66C255.904 59.1543 256.511 57.7147 257.581 56.6547C258.65 55.5947 260.095 54.9999 261.601 55H454.701C456.215 55 457.667 55.6016 458.738 56.6724C459.809 57.7433 460.411 59.1956 460.411 60.71V332.09C460.411 333.604 459.809 335.057 458.738 336.128C457.667 337.198 456.215 337.8 454.701 337.8ZM261.601 55.2C260.153 55.2026 258.766 55.7787 257.743 56.8021C256.719 57.8255 256.143 59.2127 256.141 60.66V332.09C256.143 333.537 256.719 334.924 257.743 335.948C258.766 336.971 260.153 337.547 261.601 337.55H454.701C456.148 337.547 457.535 336.971 458.559 335.948C459.582 334.924 460.158 333.537 460.161 332.09V60.66C460.158 59.2127 459.582 57.8255 458.559 56.8021C457.535 55.7787 456.148 55.2026 454.701 55.2H261.601Z" fill="#EBEBEB"/>
<path d="M500 382.4H0V382.65H500V382.4Z" fill="#EBEBEB"/>
<path d="M406.781 164.81H367.241C366.348 164.81 365.463 164.986 364.637 165.329C363.811 165.671 363.061 166.173 362.43 166.805C361.798 167.438 361.297 168.189 360.956 169.015C360.615 169.841 360.44 170.726 360.441 171.62V197.08C360.44 197.974 360.615 198.859 360.956 199.685C361.297 200.512 361.798 201.262 362.43 201.895C363.061 202.527 363.811 203.029 364.637 203.371C365.463 203.714 366.348 203.89 367.241 203.89H378.611L383.691 210.53C384.082 211.04 384.584 211.453 385.16 211.738C385.736 212.022 386.369 212.17 387.011 212.17C387.654 212.17 388.287 212.022 388.863 211.738C389.439 211.453 389.941 211.04 390.331 210.53L395.411 203.89H406.781C407.675 203.89 408.56 203.714 409.386 203.371C410.212 203.029 410.962 202.527 411.593 201.895C412.225 201.262 412.726 200.512 413.067 199.685C413.408 198.859 413.583 197.974 413.581 197.08V171.62C413.583 170.726 413.408 169.841 413.067 169.015C412.726 168.189 412.225 167.438 411.593 166.805C410.962 166.173 410.212 165.671 409.386 165.329C408.56 164.986 407.675 164.81 406.781 164.81Z" fill="#E0E0E0"/>
<path d="M378.511 187.07C377.66 186.311 376.972 185.389 376.485 184.358C375.999 183.327 375.726 182.209 375.681 181.07C375.638 180.346 375.75 179.621 376.009 178.943C376.267 178.266 376.667 177.651 377.182 177.139C377.696 176.628 378.313 176.231 378.992 175.976C379.671 175.721 380.397 175.613 381.121 175.66C384.181 175.66 385.221 177.08 387.011 179.13C388.801 177.13 389.841 175.66 392.901 175.66C393.625 175.613 394.35 175.721 395.029 175.976C395.708 176.231 396.326 176.628 396.84 177.139C397.354 177.651 397.754 178.266 398.013 178.943C398.272 179.621 398.383 180.346 398.341 181.07C398.296 182.209 398.022 183.327 397.536 184.358C397.05 185.389 396.361 186.311 395.511 187.07L387.011 195.53L378.511 187.07Z" fill="white"/>
<path d="M100.86 365C99.8653 364.115 99.0574 363.039 98.4839 361.837C97.9103 360.635 97.5827 359.331 97.5202 358C97.4653 357.146 97.5938 356.29 97.897 355.489C98.2003 354.689 98.6713 353.963 99.2785 353.359C99.8856 352.756 100.615 352.289 101.417 351.991C102.219 351.693 103.076 351.57 103.93 351.63C107.53 351.63 108.76 353.3 110.87 355.72C112.98 353.3 114.21 351.63 117.81 351.63C118.664 351.57 119.521 351.693 120.323 351.991C121.126 352.289 121.855 352.756 122.462 353.359C123.069 353.963 123.54 354.689 123.843 355.489C124.147 356.29 124.275 357.146 124.22 358C124.158 359.331 123.83 360.635 123.256 361.837C122.683 363.039 121.875 364.115 120.88 365L110.88 375L100.86 365Z" fill="#E0E0E0"/>
<path d="M123.471 376.27C122.869 375.722 122.382 375.06 122.039 374.321C121.695 373.583 121.502 372.784 121.471 371.97C121.44 371.449 121.521 370.926 121.707 370.438C121.894 369.95 122.182 369.508 122.553 369.14C122.924 368.772 123.368 368.487 123.858 368.304C124.347 368.121 124.87 368.045 125.391 368.08C127.591 368.08 128.391 369.08 129.631 370.57C130.921 369.1 131.631 368.08 133.871 368.08C134.393 368.045 134.915 368.121 135.405 368.304C135.894 368.487 136.339 368.772 136.71 369.14C137.081 369.508 137.369 369.95 137.555 370.438C137.742 370.926 137.822 371.449 137.791 371.97C137.76 372.784 137.567 373.583 137.224 374.321C136.881 375.06 136.394 375.722 135.791 376.27L129.671 382.36L123.471 376.27Z" fill="#EBEBEB"/>
<path d="M380.221 92.2798H334.861C332.789 92.2798 330.803 93.1026 329.338 94.5673C327.874 96.0319 327.051 98.0184 327.051 100.09V129.3C327.051 131.372 327.873 133.36 329.338 134.826C330.802 136.292 332.789 137.117 334.861 137.12H347.911L353.731 144.73C354.178 145.316 354.754 145.792 355.415 146.119C356.076 146.446 356.803 146.617 357.541 146.617C358.278 146.617 359.006 146.446 359.667 146.119C360.327 145.792 360.904 145.316 361.351 144.73L367.181 137.12H380.181C382.255 137.12 384.244 136.296 385.71 134.829C387.177 133.363 388.001 131.374 388.001 129.3V100.09C388.001 98.0236 387.182 96.0417 385.724 94.5779C384.266 93.1141 382.287 92.2877 380.221 92.2798Z" fill="#F5F5F5"/>
<path d="M343.301 126.44H348.441V108.18H342.441L343.301 126.44Z" fill="#E0E0E0"/>
<path d="M372.269 111C372.009 110.19 371.189 108.49 370.409 108.15C368.159 107.15 363.229 107.46 358.869 108.03C359.049 107.68 359.199 107.37 359.289 107.15C359.811 105.834 360.119 104.443 360.199 103.03C360.129 102.03 359.679 99.9099 358.869 99.3899C358.549 99.232 358.196 99.1499 357.839 99.1499C357.482 99.1499 357.13 99.232 356.809 99.3899C355.939 100.3 356.539 103.16 356.199 104.39C355.433 106.058 354.422 107.602 353.199 108.97C351.669 109.25 350.699 109.46 350.699 109.46V125.59C350.699 125.59 363.869 129.17 368.109 128.01C369.739 127.57 370.509 124.74 371.109 123.16C372.199 120.32 373.199 113.92 372.269 111Z" fill="#E0E0E0"/>
<path d="M265.499 117.66C265.267 114.798 263.967 112.127 261.857 110.18C259.746 108.232 256.98 107.151 254.109 107.15H245.889C243.017 107.151 240.251 108.232 238.14 110.18C236.03 112.127 234.73 114.798 234.499 117.66L233.809 124.66H266.189L265.499 117.66Z" fill="#EBEBEB"/>
<path d="M249.999 107.15C254.257 107.15 257.709 103.698 257.709 99.44C257.709 95.1819 254.257 91.73 249.999 91.73C245.741 91.73 242.289 95.1819 242.289 99.44C242.289 103.698 245.741 107.15 249.999 107.15Z" fill="#EBEBEB"/>
<path d="M96.9991 225.14C95.8125 225.137 94.6612 225.543 93.7391 226.29L87.5491 221.29C87.9203 220.573 88.1124 219.777 88.1091 218.97C88.109 217.799 87.7105 216.662 86.9789 215.747C86.2473 214.833 85.2263 214.194 84.0837 213.936C82.9411 213.679 81.7448 213.818 80.6915 214.33C79.6383 214.843 78.7907 215.698 78.2882 216.756C77.7856 217.814 77.658 219.012 77.9262 220.152C78.1945 221.292 78.8427 222.307 79.7642 223.03C80.6858 223.753 81.8259 224.141 82.9972 224.13C84.1685 224.119 85.3011 223.71 86.2091 222.97L92.3991 227.97C92.0313 228.69 91.8395 229.486 91.8395 230.295C91.8395 231.103 92.0313 231.9 92.3991 232.62L86.2091 237.62C85.3011 236.88 84.1685 236.471 82.9972 236.46C81.8259 236.449 80.6858 236.837 79.7642 237.56C78.8427 238.283 78.1945 239.298 77.9262 240.438C77.658 241.578 77.7856 242.775 78.2882 243.833C78.7907 244.892 79.6383 245.747 80.6915 246.26C81.7448 246.772 82.9411 246.911 84.0837 246.653C85.2263 246.396 86.2473 245.757 86.9789 244.842C87.7105 243.928 88.109 242.791 88.1091 241.62C88.1101 240.813 87.9181 240.017 87.5491 239.3L93.7391 234.3C94.3797 234.822 95.1363 235.182 95.9453 235.351C96.7542 235.52 97.5919 235.492 98.3878 235.269C99.1837 235.047 99.9145 234.637 100.519 234.073C101.123 233.509 101.583 232.808 101.86 232.03C102.137 231.251 102.223 230.418 102.111 229.599C101.999 228.78 101.691 228 101.215 227.325C100.739 226.65 100.107 226.099 99.3734 225.719C98.6397 225.338 97.8255 225.14 96.9991 225.14Z" fill="#E0E0E0"/>
<path d="M249.999 423.71C357.082 423.71 443.889 418.642 443.889 412.39C443.889 406.138 357.082 401.07 249.999 401.07C142.917 401.07 56.1094 406.138 56.1094 412.39C56.1094 418.642 142.917 423.71 249.999 423.71Z" fill="#F5F5F5"/>
<path d="M346.857 272.09H422.547C425.337 272.09 428.013 273.198 429.985 275.171C431.958 277.144 433.067 279.82 433.067 282.61V340.14C433.067 342.93 431.958 345.606 429.985 347.579C428.013 349.551 425.337 350.66 422.547 350.66H365.397C364.846 355.157 362.673 359.299 359.285 362.308C355.897 365.316 351.528 366.985 346.997 367C346.577 367 346.167 367 345.747 366.94C348.747 363.04 351.117 357.4 352.697 350.67H346.907C344.117 350.67 341.441 349.562 339.468 347.589C337.495 345.616 336.387 342.94 336.387 340.15V282.61C336.387 279.828 337.488 277.16 339.45 275.189C341.412 273.217 344.075 272.103 346.857 272.09Z" fill="#336699"/>
<path opacity="0.4" d="M346.857 272.09H422.547C425.337 272.09 428.013 273.198 429.985 275.171C431.958 277.144 433.067 279.82 433.067 282.61V340.14C433.067 342.93 431.958 345.606 429.985 347.579C428.013 349.551 425.337 350.66 422.547 350.66H365.397C364.846 355.157 362.673 359.299 359.285 362.308C355.897 365.316 351.528 366.985 346.997 367C346.577 367 346.167 367 345.747 366.94C348.747 363.04 351.117 357.4 352.697 350.67H346.907C344.117 350.67 341.441 349.562 339.468 347.589C337.495 345.616 336.387 342.94 336.387 340.15V282.61C336.387 279.828 337.488 277.16 339.45 275.189C341.412 273.217 344.075 272.103 346.857 272.09Z" fill="white"/>
<path d="M343.278 294.46L339.538 288.13L341.878 284.13C342.03 283.871 342.122 283.581 342.146 283.281C342.17 282.982 342.127 282.68 342.018 282.4L341.838 281.95C341.698 281.575 341.449 281.251 341.123 281.019C340.797 280.787 340.408 280.659 340.008 280.65L336.338 280.55C335.966 280.537 335.597 280.629 335.274 280.814C334.95 281 334.685 281.272 334.508 281.6L333.768 282.96C333.589 283.288 333.49 283.653 333.478 284.027C333.466 284.4 333.541 284.771 333.698 285.11L335.278 288.52L338.208 296.36L343.278 294.46Z" fill="#7F3E3B"/>
<path d="M373.07 293.35L351.7 308.9L341.7 290.12L336 292.59C336 292.59 344.79 321.05 349.9 319.9C355.01 318.75 369.43 311.62 374.12 306.73C376.49 304.26 378.29 299.73 375.95 294.13C375.842 293.861 375.673 293.622 375.457 293.43C375.241 293.238 374.983 293.099 374.704 293.023C374.425 292.947 374.132 292.938 373.849 292.994C373.565 293.051 373.299 293.173 373.07 293.35Z" fill="#336699"/>
<path d="M381.05 256.32C381.05 256.32 373.51 258.32 377 267.41C377 267.41 380.76 266.41 381.37 263.99C381.98 261.57 382.56 258.15 382.56 258.15L381.05 256.32Z" fill="#263238"/>
<path opacity="0.3" d="M381.05 256.32C381.05 256.32 373.51 258.32 377 267.41C377 267.41 380.76 266.41 381.37 263.99C381.98 261.57 382.56 258.15 382.56 258.15L381.05 256.32Z" fill="black"/>
<path d="M398.877 292.45L385.097 292L379.397 292.82L378.617 303.21L389.727 306.9L401.577 304.54L402.197 294.53L401.347 292.53L398.877 292.45Z" fill="#7F3E3B"/>
<path d="M380.119 350.66H399.619C399.809 343.79 400.829 308.12 400.619 308.34C400.409 308.56 402.679 300.74 402.679 300.74V297.57L400.619 294.17C400.619 294.17 396.199 300.91 388.919 300.58C382.019 300.26 380.829 293.37 380.829 293.37L379.999 303.9L379.129 329.4L380.239 340.2L380.119 350.66Z" fill="#336699"/>
<path opacity="0.6" d="M380.119 350.66H399.619C399.809 343.79 400.829 308.12 400.619 308.34C400.409 308.56 402.679 300.74 402.679 300.74V297.57L400.619 294.17C400.619 294.17 396.199 300.91 388.919 300.58C382.019 300.26 380.829 293.37 380.829 293.37L379.999 303.9L379.129 329.4L380.239 340.2L380.119 350.66Z" fill="white"/>
<path d="M372.357 350.66H382.917C384.997 336.9 385.277 311.74 385.277 311.74C384.016 306.923 383.031 302.039 382.327 297.11C381.687 291.34 389.927 292.11 397.127 293.06C404.327 294.01 391.527 312.22 391.527 312.22C391.527 312.22 390.617 336.83 392.727 350.66H418.727C417.427 346.99 413.587 335.72 412.727 327.73C411.617 318.07 418.267 303.98 417.317 297.11C416.367 290.24 393.577 291.64 393.577 291.64C393.577 291.64 378.987 291.54 375.737 291.69C371.937 291.86 370.417 301.87 368.617 309.78C366.817 317.69 370.127 325.52 371.937 335.47C372.835 340.484 372.977 345.604 372.357 350.66Z" fill="#263238"/>
<path d="M383.997 291.61C388.737 291.61 393.627 291.61 393.627 291.61C393.627 291.61 396.537 291.43 400.317 291.51C401.827 292.51 403.817 294.93 402.237 299.99L398.937 301.26L399.537 304.51C399.537 304.51 395.737 310.51 391.537 312.81C391.537 312.41 391.537 312.19 391.537 312.19C391.537 312.19 404.347 293.98 397.137 293.03C389.927 292.08 381.697 291.31 382.337 297.08C383.04 302.009 384.025 306.893 385.287 311.71C385.287 311.71 385.287 311.81 385.287 311.98C383.287 310.17 381.537 306.98 380.287 303.16L381.637 299.42L378.637 297.78C378.893 296.364 379.526 295.044 380.469 293.959C381.413 292.873 382.631 292.061 383.997 291.61Z" fill="#336699"/>
<path d="M383.798 297.06C383.567 296.529 383.473 295.948 383.526 295.371C383.578 294.795 383.775 294.24 384.098 293.76C389.518 291.93 389.018 287.86 387.768 284.09L396.498 275.18C395.988 279.92 395.798 290.83 398.898 294.63V295.5C397.55 297.232 395.746 298.555 393.688 299.32C391.63 300.084 389.4 300.261 387.248 299.83C386.484 299.701 385.767 299.378 385.163 298.893C384.559 298.409 384.089 297.777 383.798 297.06Z" fill="#7F3E3B"/>
<path opacity="0.1" d="M387.77 284.09L394.71 277.01L396.31 277.59C396.26 278.44 396.23 279.37 396.22 280.35C395.34 282.15 393.22 284.68 388.3 285.95C388.157 285.321 387.98 284.7 387.77 284.09Z" fill="black"/>
<path d="M401 267.32C398.89 275.39 398.17 278.85 393.22 282.23C385.78 287.32 376.33 282.97 375.98 274.43C375.67 266.74 379.16 254.84 387.8 253.16C389.702 252.781 391.669 252.895 393.515 253.49C395.361 254.085 397.024 255.143 398.346 256.561C399.669 257.98 400.607 259.713 401.071 261.596C401.535 263.479 401.511 265.449 401 267.32Z" fill="#7F3E3B"/>
<path d="M381.77 269.4C380.879 270.802 379.803 272.076 378.57 273.19C378.86 273.498 379.213 273.739 379.605 273.896C379.997 274.053 380.418 274.123 380.84 274.1L381.77 269.4Z" fill="#630F0F"/>
<path d="M390.379 266.43C390.436 266.427 390.491 266.41 390.539 266.38C390.577 266.358 390.61 266.329 390.636 266.294C390.662 266.26 390.68 266.22 390.691 266.178C390.701 266.136 390.703 266.092 390.695 266.05C390.688 266.007 390.673 265.966 390.649 265.93C390.343 265.389 389.909 264.931 389.387 264.595C388.864 264.259 388.268 264.055 387.649 264C387.606 263.998 387.563 264.006 387.522 264.021C387.482 264.036 387.445 264.059 387.413 264.089C387.381 264.119 387.356 264.155 387.338 264.194C387.32 264.234 387.311 264.276 387.309 264.32C387.307 264.363 387.312 264.405 387.327 264.446C387.341 264.486 387.363 264.524 387.392 264.555C387.421 264.587 387.456 264.613 387.495 264.631C387.534 264.649 387.576 264.658 387.619 264.66C388.128 264.716 388.616 264.892 389.044 265.174C389.472 265.456 389.826 265.834 390.079 266.28C390.112 266.328 390.157 266.368 390.209 266.394C390.262 266.421 390.321 266.433 390.379 266.43Z" fill="#263238"/>
<path d="M376.998 264C377.051 264.015 377.106 264.015 377.158 264C377.597 263.739 378.091 263.585 378.6 263.552C379.11 263.519 379.62 263.608 380.088 263.81C380.167 263.849 380.258 263.856 380.342 263.83C380.425 263.804 380.496 263.747 380.538 263.67C380.559 263.63 380.571 263.587 380.575 263.543C380.578 263.499 380.573 263.455 380.559 263.413C380.545 263.371 380.522 263.332 380.493 263.299C380.464 263.266 380.428 263.239 380.388 263.22C379.822 262.968 379.203 262.854 378.584 262.889C377.965 262.924 377.363 263.106 376.828 263.42C376.751 263.462 376.694 263.533 376.668 263.616C376.642 263.7 376.649 263.791 376.688 263.87C376.719 263.924 376.764 263.97 376.819 264C376.874 264.03 376.936 264.044 376.998 264.04V264Z" fill="#263238"/>
<path d="M384.217 276.32C383.832 276.321 383.447 276.288 383.067 276.22C383.041 276.216 383.015 276.207 382.992 276.194C382.969 276.18 382.95 276.162 382.934 276.141C382.918 276.119 382.906 276.095 382.9 276.069C382.894 276.043 382.893 276.016 382.897 275.99C382.907 275.938 382.936 275.891 382.979 275.86C383.021 275.828 383.074 275.814 383.127 275.82C383.971 275.986 384.842 275.952 385.67 275.721C386.498 275.49 387.261 275.068 387.897 274.49C387.937 274.463 387.984 274.45 388.032 274.453C388.08 274.457 388.125 274.476 388.16 274.509C388.195 274.542 388.218 274.586 388.224 274.633C388.231 274.68 388.222 274.729 388.197 274.77C387.119 275.778 385.694 276.333 384.217 276.32Z" fill="#263238"/>
<path d="M398.227 273.63C397.251 272.521 396.526 271.214 396.103 269.798C395.68 268.383 395.569 266.892 395.777 265.43C395.777 265.43 392.527 262.1 392.687 258.54C392.687 258.54 391.687 261.38 392.687 263.4C392.687 263.4 384.257 262.79 384.457 258.54C384.457 258.54 383.897 260.68 385.167 261.79C385.167 261.79 377.677 262.1 378.697 258.22C379.717 254.34 385.577 252.45 385.577 252.45C385.577 252.45 391.167 247.7 398.897 256.09C398.897 256.09 407.997 261.77 401.547 271.25L398.227 273.63Z" fill="#263238"/>
<path d="M401.608 274.16C401.242 274.874 400.737 275.507 400.122 276.022C399.507 276.538 398.795 276.924 398.028 277.16C396.028 277.78 394.918 275.96 395.448 274.01C395.928 272.25 397.568 269.81 399.648 270.01C400.37 270.116 401.019 270.504 401.454 271.089C401.889 271.674 402.074 272.408 401.968 273.13C401.921 273.494 401.798 273.845 401.608 274.16Z" fill="#7F3E3B"/>
<path d="M387.838 268.25C387.758 268.94 387.328 269.47 386.838 269.42C386.348 269.37 386.078 268.78 386.158 268.07C386.238 267.36 386.658 266.86 387.108 266.9C387.558 266.94 387.908 267.55 387.838 268.25Z" fill="#2E353A"/>
<path d="M379.999 267.43C379.929 268.12 379.499 268.64 379.049 268.6C378.599 268.56 378.279 267.95 378.349 267.25C378.419 266.55 378.849 266.03 379.349 266.08C379.849 266.13 379.999 266.72 379.999 267.43Z" fill="#2E353A"/>
<path d="M379.448 266.14L377.828 265.48C377.828 265.48 378.548 266.87 379.448 266.14Z" fill="#2E353A"/>
<path d="M387.337 267L385.707 266.35C385.707 266.35 386.437 267.7 387.337 267Z" fill="#2E353A"/>
<path d="M397.53 280.91C398.054 280.911 398.567 280.759 399.006 280.474C399.446 280.189 399.793 279.781 400.005 279.302C400.217 278.823 400.285 278.293 400.2 277.775C400.116 277.258 399.883 276.777 399.53 276.39L399.18 276.71C399.556 277.118 399.764 277.654 399.76 278.21C399.762 278.652 399.632 279.084 399.388 279.452C399.144 279.821 398.796 280.108 398.388 280.278C397.98 280.448 397.531 280.493 397.097 280.407C396.664 280.322 396.266 280.109 395.953 279.797C395.641 279.484 395.428 279.086 395.342 278.652C395.256 278.219 395.302 277.77 395.472 277.362C395.642 276.954 395.929 276.606 396.297 276.361C396.665 276.117 397.098 275.988 397.54 275.99C397.853 275.987 398.164 276.052 398.45 276.18L398.64 275.75C398.295 275.59 397.92 275.508 397.54 275.51C397.185 275.51 396.834 275.58 396.507 275.715C396.179 275.851 395.881 276.05 395.631 276.301C395.38 276.551 395.181 276.849 395.045 277.177C394.91 277.504 394.84 277.855 394.84 278.21C394.84 278.564 394.91 278.915 395.045 279.243C395.181 279.571 395.38 279.868 395.631 280.119C395.881 280.37 396.179 280.569 396.507 280.704C396.834 280.84 397.185 280.91 397.54 280.91H397.53Z" fill="#336699"/>
<g opacity="0.6">
<path d="M397.53 280.91C398.054 280.911 398.567 280.759 399.006 280.474C399.446 280.189 399.793 279.781 400.005 279.302C400.217 278.823 400.285 278.293 400.2 277.775C400.116 277.258 399.883 276.777 399.53 276.39L399.18 276.71C399.556 277.118 399.764 277.654 399.76 278.21C399.762 278.652 399.632 279.084 399.388 279.452C399.144 279.821 398.796 280.108 398.388 280.278C397.98 280.448 397.531 280.493 397.097 280.407C396.664 280.322 396.266 280.109 395.953 279.797C395.641 279.484 395.428 279.086 395.342 278.652C395.256 278.219 395.302 277.77 395.472 277.362C395.642 276.954 395.929 276.606 396.297 276.361C396.665 276.117 397.098 275.988 397.54 275.99C397.853 275.987 398.164 276.052 398.45 276.18L398.64 275.75C398.295 275.59 397.92 275.508 397.54 275.51C397.185 275.51 396.834 275.58 396.507 275.715C396.179 275.851 395.881 276.05 395.631 276.301C395.38 276.551 395.181 276.849 395.045 277.177C394.91 277.504 394.84 277.855 394.84 278.21C394.84 278.564 394.91 278.915 395.045 279.243C395.181 279.571 395.38 279.868 395.631 280.119C395.881 280.37 396.179 280.569 396.507 280.704C396.834 280.84 397.185 280.91 397.54 280.91H397.53Z" fill="white"/>
</g>
<path d="M395.669 321.75L388.329 322.07L385.869 318.07C385.711 317.812 385.497 317.594 385.242 317.431C384.988 317.268 384.699 317.165 384.399 317.13L383.919 317.07C383.524 317.019 383.123 317.086 382.766 317.264C382.41 317.443 382.115 317.723 381.919 318.07L380.099 321.26C379.913 321.583 379.821 321.952 379.833 322.325C379.846 322.698 379.962 323.06 380.169 323.37L381.019 324.66C381.223 324.973 381.497 325.234 381.82 325.422C382.143 325.61 382.506 325.719 382.879 325.74L386.629 325.95L394.929 327.07L395.669 321.75Z" fill="#7F3E3B"/>
<path d="M408.72 295L412.37 321.17H391.08L390.57 327.36C390.57 327.36 419.82 333.03 421.21 327.98C422.6 322.93 423.11 306.86 421.01 300.41C419.94 297.16 416.8 293.41 410.76 292.86C410.477 292.835 410.192 292.874 409.926 292.974C409.661 293.074 409.421 293.233 409.225 293.438C409.029 293.644 408.882 293.891 408.794 294.162C408.707 294.432 408.682 294.719 408.72 295Z" fill="#336699"/>
<path d="M315.692 144H292.322L268.762 413.4H292.132C297.471 413.303 302.59 411.253 306.52 407.638C310.45 404.023 312.92 399.093 313.462 393.78L333.592 163.63C333.869 161.131 333.611 158.602 332.834 156.211C332.056 153.82 330.778 151.622 329.084 149.764C327.39 147.907 325.319 146.431 323.01 145.437C320.7 144.443 318.205 143.953 315.692 144Z" fill="#263238"/>
<path d="M330.172 171C330.222 170.498 330.452 170.031 330.82 169.686C331.187 169.34 331.667 169.139 332.172 169.12C332.413 169.116 332.652 169.163 332.873 169.258C333.094 169.353 333.293 169.494 333.455 169.672C333.618 169.85 333.741 170.06 333.816 170.289C333.891 170.518 333.917 170.76 333.892 171L332.312 189C332.287 189.524 332.067 190.02 331.695 190.39C331.323 190.761 330.826 190.978 330.302 191C330.062 191.003 329.824 190.955 329.603 190.859C329.383 190.763 329.186 190.621 329.024 190.444C328.863 190.266 328.741 190.056 328.666 189.828C328.592 189.6 328.566 189.359 328.592 189.12L330.172 171Z" fill="#336699"/>
<path opacity="0.3" d="M330.172 171C330.222 170.498 330.452 170.031 330.82 169.686C331.187 169.34 331.667 169.139 332.172 169.12C332.413 169.116 332.652 169.163 332.873 169.258C333.094 169.353 333.293 169.494 333.455 169.672C333.618 169.85 333.741 170.06 333.816 170.289C333.891 170.518 333.917 170.76 333.892 171L332.312 189C332.287 189.524 332.067 190.02 331.695 190.39C331.323 190.761 330.826 190.978 330.302 191C330.062 191.003 329.824 190.955 329.603 190.859C329.383 190.763 329.186 190.621 329.024 190.444C328.863 190.266 328.741 190.056 328.666 189.828C328.592 189.6 328.566 189.359 328.592 189.12L330.172 171Z" fill="white"/>
<path d="M287.339 413.4H191.049C188.537 413.445 186.043 412.954 183.736 411.96C181.428 410.966 179.358 409.492 177.665 407.635C175.971 405.779 174.692 403.583 173.914 401.194C173.135 398.805 172.874 396.278 173.149 393.78L193.289 163.63C193.824 158.314 196.292 153.379 200.223 149.761C204.154 146.143 209.277 144.093 214.619 144H310.909C313.42 143.955 315.912 144.446 318.22 145.439C320.527 146.433 322.596 147.906 324.289 149.761C325.982 151.616 327.261 153.811 328.041 156.199C328.82 158.586 329.082 161.113 328.809 163.61L308.669 393.78C308.127 399.092 305.657 404.022 301.727 407.638C297.797 411.253 292.678 413.303 287.339 413.4Z" fill="#336699"/>
<path d="M310.522 148.52H285.522C284.708 148.536 283.923 148.825 283.292 149.339C282.661 149.854 282.221 150.566 282.042 151.36L281.872 152.15C281.438 154.092 280.364 155.832 278.822 157.09C277.281 158.349 275.362 159.053 273.372 159.09H249.552C247.668 159.13 245.844 158.423 244.48 157.123C243.116 155.822 242.322 154.034 242.272 152.15V151.36C242.262 150.977 242.176 150.599 242.02 150.249C241.863 149.898 241.639 149.582 241.361 149.319C241.082 149.055 240.754 148.849 240.396 148.712C240.038 148.575 239.656 148.51 239.272 148.52H214.272C210.16 148.596 206.219 150.176 203.192 152.959C200.165 155.743 198.262 159.539 197.842 163.63L177.652 393.78C177.44 395.705 177.641 397.652 178.24 399.493C178.84 401.334 179.825 403.027 181.13 404.457C182.434 405.888 184.029 407.024 185.807 407.79C187.585 408.556 189.506 408.935 191.442 408.9H287.742C291.856 408.824 295.798 407.243 298.826 404.457C301.853 401.671 303.755 397.873 304.172 393.78L324.312 163.63C324.523 161.706 324.321 159.76 323.721 157.92C323.12 156.08 322.135 154.389 320.831 152.96C319.526 151.531 317.932 150.395 316.155 149.63C314.377 148.864 312.457 148.486 310.522 148.52Z" fill="#336699"/>
<path opacity="0.7" d="M310.522 148.52H285.522C284.708 148.536 283.923 148.825 283.292 149.339C282.661 149.854 282.221 150.566 282.042 151.36L281.872 152.15C281.438 154.092 280.364 155.832 278.822 157.09C277.281 158.349 275.362 159.053 273.372 159.09H249.552C247.668 159.13 245.844 158.423 244.48 157.123C243.116 155.822 242.322 154.034 242.272 152.15V151.36C242.262 150.977 242.176 150.599 242.02 150.249C241.863 149.898 241.639 149.582 241.361 149.319C241.082 149.055 240.754 148.849 240.396 148.712C240.038 148.575 239.656 148.51 239.272 148.52H214.272C210.16 148.596 206.219 150.176 203.192 152.959C200.165 155.743 198.262 159.539 197.842 163.63L177.652 393.78C177.44 395.705 177.641 397.652 178.24 399.493C178.84 401.334 179.825 403.027 181.13 404.457C182.434 405.888 184.029 407.024 185.807 407.79C187.585 408.556 189.506 408.935 191.442 408.9H287.742C291.856 408.824 295.798 407.243 298.826 404.457C301.853 401.671 303.755 397.873 304.172 393.78L324.312 163.63C324.523 161.706 324.321 159.76 323.721 157.92C323.12 156.08 322.135 154.389 320.831 152.96C319.526 151.531 317.932 150.395 316.155 149.63C314.377 148.864 312.457 148.486 310.522 148.52Z" fill="white"/>
<g opacity="0.2">
<path d="M255.671 152.382C256.469 151.618 256.549 150.407 255.85 149.677C255.151 148.947 253.938 148.974 253.14 149.738C252.342 150.502 252.262 151.713 252.961 152.443C253.66 153.173 254.873 153.146 255.671 152.382Z" fill="black"/>
<path d="M270.052 149.16H263.492C262.972 149.17 262.473 149.369 262.09 149.721C261.707 150.073 261.465 150.553 261.412 151.07C261.386 151.314 261.413 151.56 261.489 151.792C261.566 152.025 261.691 152.239 261.857 152.419C262.022 152.6 262.224 152.743 262.449 152.84C262.674 152.936 262.917 152.984 263.162 152.98H269.722C270.241 152.969 270.739 152.768 271.122 152.417C271.504 152.065 271.746 151.587 271.802 151.07C271.829 150.826 271.804 150.579 271.727 150.346C271.651 150.113 271.526 149.899 271.361 149.718C271.195 149.537 270.992 149.393 270.766 149.297C270.541 149.201 270.297 149.154 270.052 149.16Z" fill="black"/>
</g>
<path d="M208.672 159.06H210.692L210.872 157.03H208.842L208.672 159.06Z" fill="#336699"/>
<path d="M212.899 157.03L212.719 159.06H214.739L214.919 157.03L215.099 155.01H213.069L212.899 157.03Z" fill="#336699"/>
<path d="M217.3 152.98L217.12 155.01L216.94 157.03L216.77 159.06H218.79L218.97 157.03L219.15 155.01L219.32 152.98H217.3Z" fill="#336699"/>
<path d="M304.37 153.12L304.24 154.6H303.24L302.98 157.6H303.98L303.85 159.09H312.76L313.28 153.15L304.37 153.12ZM307.94 157.57H304.94L305.2 154.57H308.2L307.94 157.57Z" fill="#336699"/>
<g opacity="0.4">
<path d="M249.622 159.09L183.152 406.26C185.565 407.998 188.469 408.923 191.442 408.9H196.642L263.822 159.09H249.622Z" fill="white"/>
<path d="M310.521 148.52H285.521C284.707 148.536 283.922 148.825 283.291 149.339C282.66 149.854 282.22 150.566 282.041 151.36L281.871 152.15C281.448 154.04 280.419 155.741 278.941 156.992C277.462 158.243 275.615 158.976 273.681 159.08L206.461 408.9H257.711L324.311 161.24C324.097 157.75 322.543 154.478 319.973 152.108C317.403 149.737 314.017 148.452 310.521 148.52Z" fill="white"/>
</g>
<path d="M209.911 215.6L206.911 214.95C206.717 214.912 206.534 214.832 206.375 214.716C206.216 214.6 206.084 214.451 205.989 214.278C205.893 214.106 205.837 213.915 205.823 213.718C205.81 213.521 205.84 213.324 205.911 213.14L210.101 202.2L214.891 203.2L211.481 214.63C211.391 214.961 211.179 215.245 210.887 215.425C210.596 215.605 210.246 215.668 209.911 215.6Z" fill="#336699"/>
<path d="M221.531 201.6C221.334 201.558 221.147 201.476 220.981 201.361C220.815 201.246 220.674 201.099 220.565 200.929C220.456 200.759 220.382 200.569 220.347 200.37C220.312 200.171 220.317 199.967 220.361 199.77L220.761 197.89C220.804 197.692 220.885 197.504 221.001 197.337C221.117 197.171 221.265 197.029 221.436 196.92C221.607 196.811 221.799 196.737 221.999 196.703C222.199 196.669 222.404 196.675 222.601 196.72C223 196.807 223.349 197.048 223.57 197.391C223.791 197.734 223.867 198.151 223.781 198.55L223.371 200.42C223.283 200.82 223.039 201.169 222.695 201.39C222.35 201.611 221.932 201.687 221.531 201.6Z" fill="#336699"/>
<path d="M218.571 192.28C218.571 192.28 207.171 190.98 203.181 188.94C193.801 184.12 184.831 172.62 182.931 172.21C179.831 171.53 175.611 178.87 173.491 188.6C171.371 198.33 172.171 206.75 175.271 207.42C177.181 207.84 190.101 201.1 200.641 200.61C205.121 200.41 216.001 204 216.001 204L218.571 192.28Z" fill="#336699"/>
<path opacity="0.3" d="M218.571 192.28C218.571 192.28 207.171 190.98 203.181 188.94C193.801 184.12 184.831 172.62 182.931 172.21C179.831 171.53 175.611 178.87 173.491 188.6C171.371 198.33 172.171 206.75 175.271 207.42C177.181 207.84 190.101 201.1 200.641 200.61C205.121 200.41 216.001 204 216.001 204L218.571 192.28Z" fill="white"/>
<path d="M184.71 191C182.6 200.72 178.37 208.06 175.27 207.38C172.17 206.7 171.38 198.28 173.49 188.56C175.6 178.84 179.83 171.49 182.93 172.17C186.03 172.85 186.83 181.31 184.71 191Z" fill="#336699"/>
<path opacity="0.4" d="M184.71 191C182.6 200.72 178.37 208.06 175.27 207.38C172.17 206.7 171.38 198.28 173.49 188.56C175.6 178.84 179.83 171.49 182.93 172.17C186.03 172.85 186.83 181.31 184.71 191Z" fill="black"/>
<path d="M216.719 191L211.429 189.85C211.089 189.775 210.736 189.771 210.394 189.838C210.052 189.905 209.727 190.042 209.44 190.239C209.153 190.437 208.91 190.692 208.726 190.988C208.541 191.284 208.42 191.615 208.369 191.96C208.179 193.29 207.939 194.66 207.639 196.06C207.339 197.46 206.979 198.81 206.639 200.06C206.542 200.396 206.515 200.748 206.56 201.095C206.605 201.441 206.72 201.775 206.899 202.075C207.079 202.375 207.317 202.635 207.601 202.839C207.885 203.043 208.208 203.186 208.549 203.26L214.819 204.62C218.579 205.44 221.289 202.79 222.049 199.01C222.389 197.243 222.021 195.413 221.024 193.914C220.027 192.416 218.481 191.369 216.719 191Z" fill="#263238"/>
<path d="M179.27 189.05L178.94 190.58C178.843 191.008 178.902 191.456 179.106 191.844C179.309 192.232 179.643 192.536 180.05 192.7L183.89 194.3C184.19 193.25 184.47 192.16 184.71 191.04C184.95 189.92 185.16 188.8 185.33 187.72L181.16 187.58C180.722 187.565 180.294 187.704 179.948 187.973C179.603 188.242 179.363 188.623 179.27 189.05Z" fill="#263238"/>
<path opacity="0.8" d="M179.27 189.05L178.94 190.58C178.843 191.008 178.902 191.456 179.106 191.844C179.309 192.232 179.643 192.536 180.05 192.7L183.89 194.3C184.19 193.25 184.47 192.16 184.71 191.04C184.95 189.92 185.16 188.8 185.33 187.72L181.16 187.58C180.722 187.565 180.294 187.704 179.948 187.973C179.603 188.242 179.363 188.623 179.27 189.05Z" fill="white"/>
<path opacity="0.2" d="M182.17 190.48C181.96 191.48 181.73 192.38 181.48 193.3L183.89 194.3C184.19 193.25 184.47 192.16 184.71 191.04C184.95 189.92 185.16 188.8 185.33 187.72L182.71 187.63C182.564 188.543 182.384 189.493 182.17 190.48Z" fill="black"/>
<path d="M274.56 191.08C275.515 191.446 276.544 191.579 277.561 191.47C278.578 191.36 279.554 191.011 280.41 190.45C283.48 188.45 289.24 190.97 287.5 199.16C284.5 213.24 278.24 223.35 282.3 227.61C282.3 227.61 268.78 228.23 270.78 216.29C272.28 207.29 282.45 197.17 280 195.15C279.18 194.47 278 194.82 274.15 194.82L274.56 191.08Z" fill="#263238"/>
<path d="M274.152 194.82C276.005 194.759 277.857 194.981 279.642 195.48C280.273 193.667 280.518 191.743 280.362 189.83C278.393 190.056 276.45 190.475 274.562 191.08L274.152 194.82Z" fill="#336699"/>
<path d="M261.419 180.82C261.419 180.82 255.799 179.22 259.509 175.59C264.349 170.86 271.229 179.72 271.229 179.72C271.229 179.72 287.359 186.77 274.049 203.12C274.049 203.12 269.239 211.72 268.239 208.37C267.239 205.02 273.919 195.53 273.919 195.53L273.519 187.03L271.669 183.72L265.859 180.4L261.419 180.82Z" fill="#263238"/>
<path d="M239.131 228.71C238.75 228.087 238.25 227.544 237.659 227.114C237.068 226.684 236.398 226.375 235.688 226.204C234.977 226.033 234.24 226.004 233.518 226.118C232.797 226.233 232.104 226.488 231.481 226.87H231.401C229.651 227.94 227.791 229.13 225.951 230.23L220.401 233.56C217.801 235.087 215.188 236.57 212.561 238.01C212.411 236.014 212.378 234.01 212.461 232.01C212.531 229.67 212.701 227.28 212.881 224.89C213.061 222.5 213.301 220.05 213.501 217.68V217.62C213.552 216.954 213.361 216.292 212.963 215.755C212.566 215.218 211.988 214.842 211.336 214.696C210.684 214.551 210.001 214.645 209.412 214.961C208.824 215.278 208.369 215.796 208.131 216.42C207.241 218.83 206.541 221.21 205.841 223.65C205.141 226.09 204.611 228.55 204.141 231.09C203.628 233.727 203.347 236.404 203.301 239.09C203.262 240.78 203.481 242.466 203.951 244.09C204.38 245.542 205.213 246.842 206.351 247.84C207.215 248.57 208.246 249.075 209.351 249.31C210.316 249.497 211.307 249.497 212.271 249.31C212.503 249.258 212.731 249.188 212.951 249.1L213.281 248.97C215.411 248.09 217.531 247.21 219.591 246.21C221.651 245.21 223.711 244.21 225.721 243.16C227.731 242.11 229.721 240.98 231.721 239.81C233.721 238.64 235.581 237.47 237.551 236.11C238.696 235.301 239.495 234.09 239.787 232.719C240.08 231.348 239.846 229.916 239.131 228.71Z" fill="#CE7A63"/>
<path d="M244.002 221.41C247.372 228.2 242.522 234.09 233.632 243.53C228.989 239.765 225.745 234.549 224.422 228.72C224.422 228.72 234.702 220.24 244.002 221.41Z" fill="#336699"/>
<path opacity="0.2" d="M244.349 229.47C241.059 227.47 237.349 226.57 234.779 229.84C232.773 232.473 230.449 234.848 227.859 236.91C229.434 239.407 231.391 241.641 233.659 243.53C238.999 237.89 242.819 233.52 244.349 229.47Z" fill="black"/>
<path d="M211.001 205L213.281 206.51C213.706 206.787 214.058 207.162 214.307 207.605C214.556 208.047 214.695 208.543 214.711 209.05L214.891 213.86C214.92 214.807 214.726 215.747 214.323 216.604C213.919 217.46 213.319 218.21 212.571 218.79L211.621 219.52C207.621 217.27 205.031 211.93 205.031 211.93L204.111 210.49C203.913 210.2 203.776 209.873 203.706 209.53C203.636 209.186 203.635 208.832 203.702 208.487C203.77 208.143 203.906 207.816 204.101 207.525C204.297 207.233 204.548 206.983 204.841 206.79L207.661 204.93C208.165 204.618 208.748 204.458 209.341 204.471C209.934 204.483 210.51 204.667 211.001 205Z" fill="#CE7A63"/>
<path d="M236.189 408.9C241.369 392.9 244.909 375.13 241.389 362.16C262.789 299.3 253.139 281 253.139 281L227.669 271.71C227.669 271.71 224.029 328.32 222.929 355.71C222.319 371.02 219.709 390.93 216.699 408.91L236.189 408.9Z" fill="#263238"/>
<path opacity="0.5" d="M249.4 304.26L244.23 295.92L241.07 302.42C239.422 320.343 240.202 338.406 243.39 356.12C247.51 343.748 250.765 331.104 253.13 318.28L249.4 304.26Z" fill="black"/>
<path d="M251.839 408.9H271.149C273.149 392.27 273.149 374.38 267.249 362.42C276.249 296.63 263.249 280.52 263.249 280.52L236.469 276.28C236.469 276.28 243.739 332.54 247.909 359.61C250.059 373.63 251.279 391.82 251.839 408.9Z" fill="#263238"/>
<path d="M232.079 234.05C230.948 238.917 230.147 243.855 229.679 248.83C228.819 256.08 228.189 263.24 227.359 275.21L263.619 281C264.509 270.68 267.539 259.23 277.689 237.28C278.263 236.139 278.574 234.883 278.599 233.606C278.625 232.328 278.364 231.061 277.837 229.897C277.31 228.734 276.529 227.702 275.552 226.879C274.575 226.056 273.426 225.462 272.189 225.14C270.779 224.77 269.279 224.41 267.729 224.08C262.308 222.823 256.804 221.954 251.259 221.48C249.449 221.36 247.559 221.29 245.749 221.25C239.209 221.08 233.289 227.7 232.079 234.05Z" fill="#336699"/>
<path d="M269.499 205.31C267.229 210.38 263.939 219.81 266.819 223.89C266.819 223.89 261.919 222.34 250.229 227.24C247.839 222.33 250.359 221.24 250.359 221.24C256.589 220.79 257.459 216.43 257.359 212.24L269.499 205.31Z" fill="#CE7A63"/>
<path d="M252.68 226.27C253.308 226.501 253.88 226.864 254.356 227.335C254.832 227.806 255.202 228.374 255.44 229C255.639 229.455 255.932 229.863 256.3 230.197C256.667 230.531 257.102 230.783 257.574 230.937C258.046 231.091 258.546 231.143 259.04 231.09C259.534 231.037 260.011 230.88 260.44 230.63C263.44 228.94 267.22 226.53 269.11 224.39C268.131 223.645 267.192 222.847 266.3 222C266.3 222 255.05 224.57 252.68 226.27Z" fill="white"/>
<path d="M249.432 225.18C248.576 225.319 247.766 225.662 247.072 226.18C246.879 226.32 246.647 226.396 246.408 226.396C246.17 226.396 245.938 226.321 245.745 226.181C245.552 226.042 245.408 225.844 245.333 225.618C245.259 225.391 245.259 225.147 245.332 224.92C246.582 221.38 248.742 220.92 248.742 220.92C249.785 220.523 250.938 220.523 251.982 220.92C251.116 221.207 250.383 221.794 249.915 222.576C249.447 223.358 249.275 224.282 249.432 225.18Z" fill="white"/>
<path opacity="0.2" d="M264.559 208.14L257.399 212.24C257.432 213.244 257.372 214.248 257.219 215.24C259.559 215.24 263.219 213.32 264.019 211.03C264.376 210.108 264.559 209.129 264.559 208.14Z" fill="black"/>
<path d="M275.709 195.4C272.709 203.7 271.709 207.26 266.139 210.59C257.829 215.59 248.259 210.74 248.669 201.87C249.049 193.87 253.829 181.65 263.089 180.22C265.068 179.846 267.111 180.009 269.006 180.69C270.9 181.372 272.579 182.548 273.866 184.096C275.153 185.645 276.003 187.51 276.327 189.497C276.651 191.485 276.438 193.523 275.709 195.4Z" fill="#CE7A63"/>
<path d="M264.562 195.09C264.342 195.8 263.802 196.29 263.342 196.18C262.882 196.07 262.692 195.41 262.902 194.7C263.112 193.99 263.672 193.51 264.132 193.62C264.592 193.73 264.782 194.39 264.562 195.09Z" fill="#263238"/>
<path d="M255.712 192.73C255.492 193.43 254.942 193.92 254.482 193.81C254.022 193.7 253.832 193.04 254.052 192.34C254.272 191.64 254.822 191.14 255.282 191.25C255.742 191.36 255.932 192 255.712 192.73Z" fill="#263238"/>
<path d="M255.47 191.34L253.93 190.45C253.93 190.45 254.39 192 255.47 191.34Z" fill="#263238"/>
<path d="M258.279 194.19C257.152 195.658 255.841 196.976 254.379 198.11C254.668 198.452 255.03 198.724 255.439 198.907C255.847 199.091 256.291 199.181 256.739 199.17L258.279 194.19Z" fill="#BA4D3C"/>
<path d="M267.249 191C267.193 190.995 267.138 190.977 267.089 190.948C267.041 190.918 267 190.878 266.969 190.83C266.696 190.382 266.315 190.01 265.861 189.748C265.406 189.486 264.894 189.342 264.369 189.33C264.315 189.332 264.26 189.322 264.209 189.302C264.158 189.282 264.112 189.252 264.073 189.214C264.034 189.176 264.003 189.13 263.981 189.079C263.96 189.029 263.949 188.975 263.949 188.92C263.956 188.803 264.006 188.693 264.089 188.61C264.172 188.527 264.282 188.477 264.399 188.47C265.062 188.482 265.711 188.658 266.289 188.982C266.867 189.307 267.355 189.77 267.709 190.33C267.748 190.404 267.766 190.487 267.761 190.571C267.756 190.654 267.728 190.735 267.681 190.804C267.633 190.872 267.568 190.927 267.492 190.962C267.416 190.996 267.332 191.01 267.249 191Z" fill="#263238"/>
<path d="M253.811 186.79C253.762 186.77 253.717 186.74 253.679 186.703C253.641 186.665 253.612 186.62 253.591 186.57C253.556 186.463 253.565 186.346 253.616 186.245C253.666 186.144 253.755 186.067 253.861 186.03C254.502 185.761 255.196 185.642 255.889 185.684C256.583 185.726 257.258 185.926 257.861 186.27C257.906 186.302 257.944 186.342 257.973 186.389C258.002 186.436 258.02 186.488 258.028 186.543C258.035 186.597 258.031 186.653 258.017 186.706C258.002 186.758 257.976 186.808 257.941 186.85C257.872 186.941 257.771 187.003 257.658 187.023C257.545 187.044 257.429 187.021 257.331 186.96C256.849 186.691 256.312 186.536 255.76 186.508C255.209 186.481 254.658 186.581 254.151 186.8C254.097 186.821 254.039 186.831 253.98 186.829C253.922 186.828 253.865 186.814 253.811 186.79Z" fill="#263238"/>
<path d="M264.319 193.71L262.789 192.82C262.789 192.82 263.239 194.35 264.319 193.71Z" fill="#263238"/>
<path d="M231.341 261.31H222.701C222.281 261.292 221.879 261.137 221.554 260.87C221.23 260.603 221.001 260.238 220.901 259.83L216.901 241.11C216.85 240.934 216.842 240.749 216.877 240.569C216.912 240.389 216.989 240.22 217.103 240.076C217.216 239.932 217.362 239.818 217.529 239.742C217.696 239.666 217.878 239.631 218.061 239.64H226.701C227.12 239.658 227.521 239.811 227.846 240.076C228.17 240.341 228.4 240.704 228.501 241.11L232.501 259.83C232.552 260.006 232.56 260.192 232.525 260.373C232.49 260.553 232.413 260.722 232.3 260.866C232.186 261.011 232.04 261.127 231.874 261.204C231.707 261.281 231.525 261.317 231.341 261.31Z" fill="#263238"/>
<path d="M230.341 261.31H221.701C221.281 261.292 220.879 261.137 220.554 260.87C220.23 260.603 220.001 260.238 219.901 259.83L215.901 241.11C215.85 240.934 215.842 240.749 215.877 240.569C215.912 240.389 215.989 240.22 216.103 240.076C216.216 239.932 216.362 239.818 216.529 239.742C216.696 239.666 216.878 239.631 217.061 239.64H225.701C226.12 239.658 226.521 239.811 226.846 240.076C227.17 240.341 227.4 240.704 227.501 241.11L231.501 259.83C231.552 260.006 231.56 260.192 231.525 260.373C231.49 260.553 231.413 260.722 231.3 260.866C231.186 261.011 231.04 261.127 230.874 261.204C230.707 261.281 230.525 261.317 230.341 261.31Z" fill="#263238"/>
<path opacity="0.2" d="M230.341 261.31H221.701C221.281 261.292 220.879 261.137 220.554 260.87C220.23 260.603 220.001 260.238 219.901 259.83L215.901 241.11C215.85 240.934 215.842 240.749 215.877 240.569C215.912 240.389 215.989 240.22 216.103 240.076C216.216 239.932 216.362 239.818 216.529 239.742C216.696 239.666 216.878 239.631 217.061 239.64H225.701C226.12 239.658 226.521 239.811 226.846 240.076C227.17 240.341 227.4 240.704 227.501 241.11L231.501 259.83C231.552 260.006 231.56 260.192 231.525 260.373C231.49 260.553 231.413 260.722 231.3 260.866C231.186 261.011 231.04 261.127 230.874 261.204C230.707 261.281 230.525 261.317 230.341 261.31Z" fill="white"/>
<path d="M227.24 250.28L229.92 249.69C230.415 249.581 230.929 249.591 231.419 249.719C231.91 249.848 232.363 250.092 232.74 250.43L236.32 253.65C237.022 254.287 237.562 255.082 237.898 255.968C238.233 256.855 238.354 257.808 238.25 258.75L238.11 259.93C233.74 261.22 228.11 259.4 228.11 259.4L226.43 259.06C226.084 259 225.754 258.872 225.458 258.683C225.162 258.494 224.907 258.248 224.707 257.96C224.507 257.671 224.366 257.346 224.293 257.003C224.219 256.66 224.215 256.305 224.28 255.96L224.91 252.63C225.033 252.057 225.318 251.531 225.731 251.114C226.144 250.698 226.668 250.408 227.24 250.28Z" fill="#CE7A63"/>
<path d="M273.33 230.81C271.863 230.671 270.401 231.119 269.265 232.057C268.129 232.994 267.411 234.344 267.27 235.81V236C267.17 237 267.04 238.22 266.91 239.35C266.78 240.48 266.62 241.65 266.45 242.8C266.11 245.11 265.7 247.39 265.24 249.65C264.78 251.91 264.24 254.13 263.59 256.3C263.06 258.04 262.45 259.72 261.8 261.36C260.993 261.393 260.186 261.342 259.39 261.21C256.807 260.822 254.255 260.257 251.75 259.52C249.4 258.78 247.03 257.92 244.66 257.02C242.29 256.12 239.9 255.15 237.57 254.22H237.51C236.883 253.959 236.182 253.938 235.541 254.16C234.899 254.382 234.361 254.831 234.029 255.423C233.698 256.016 233.595 256.709 233.74 257.372C233.886 258.035 234.27 258.622 234.82 259.02C237.02 260.64 239.24 262.02 241.53 263.46C243.82 264.9 246.19 266.13 248.66 267.32C251.503 268.566 254.447 269.57 257.46 270.32C259.089 270.77 260.769 271.012 262.46 271.04C263.592 271.053 264.719 270.888 265.8 270.55C267.315 270.086 268.667 269.202 269.7 268C269.879 267.777 270.039 267.54 270.18 267.29L270.28 267.1C271.573 264.719 272.695 262.25 273.64 259.71C274.551 257.234 275.325 254.711 275.96 252.15C276.61 249.62 277.11 247.07 277.52 244.51C277.71 243.22 277.88 241.94 278.03 240.65C278.18 239.36 278.29 238.11 278.36 236.65C278.436 235.216 277.955 233.808 277.018 232.72C276.081 231.631 274.759 230.947 273.33 230.81Z" fill="#CE7A63"/>
<path d="M275.003 226.39C281.183 230.76 281.483 237.3 278.143 249.82C273.673 252.06 262.812 249.23 262.812 249.23C262.812 249.23 266.233 229.79 275.003 226.39Z" fill="#336699"/>
<path d="M252.762 201.57C252.762 201.57 255.762 200.98 263.912 201.23C262.912 203.67 261.032 205.61 256.822 205.48C255.812 205.546 254.817 205.208 254.055 204.54C253.294 203.873 252.829 202.93 252.762 201.92C252.762 201.8 252.752 201.69 252.762 201.57Z" fill="#263238"/>
<path d="M258.819 203.57C257.205 203.433 255.589 203.808 254.199 204.64C254.967 205.168 255.877 205.451 256.809 205.45C258.421 205.592 260.035 205.217 261.419 204.38C260.66 203.842 259.75 203.558 258.819 203.57Z" fill="#BA4D3C"/>
<path d="M253.129 201.52C253.204 201.823 253.36 202.099 253.58 202.319C253.8 202.54 254.076 202.696 254.379 202.77C256.813 202.839 259.248 202.702 261.659 202.36C262.043 202.335 262.415 202.216 262.743 202.014C263.071 201.812 263.344 201.532 263.539 201.2C260.066 201.032 256.585 201.139 253.129 201.52Z" fill="white"/>
<path d="M263.159 179.67C262.635 179.75 262.117 179.867 261.609 180.02V180.5C262.925 180.483 264.235 180.675 265.489 181.07C272.409 183.18 273.489 187.07 271.169 192.82C270.059 195.56 269.459 201.37 270.739 202.46C271.069 202.74 272.069 202.7 273.369 202.46C274.229 200.46 275.049 198.13 276.099 195.19C276.838 193.268 277.05 191.183 276.714 189.151C276.377 187.119 275.504 185.213 274.186 183.632C272.867 182.05 271.149 180.848 269.211 180.152C267.273 179.456 265.184 179.289 263.159 179.67Z" fill="#263238"/>
<path d="M276.501 203C275.86 203.67 275.093 204.206 274.243 204.576C273.393 204.947 272.478 205.146 271.551 205.16C269.151 205.16 268.771 202.68 270.121 200.62C271.331 198.77 274.031 196.54 276.121 197.55C278.211 198.56 278.161 201.29 276.501 203Z" fill="#CE7A63"/>
<g opacity="0.9">
<path d="M261.751 245.48C244.911 244.48 237.311 241.33 234.281 239.57C234.183 239.519 234.092 239.455 234.011 239.38C233.141 238.62 234.241 237.23 235.251 237.81C237.901 239.34 245.201 242.45 261.871 243.48C262.134 243.496 262.381 243.615 262.557 243.812C262.733 244.008 262.824 244.267 262.811 244.53C262.804 244.663 262.772 244.792 262.715 244.912C262.658 245.031 262.578 245.138 262.479 245.227C262.381 245.315 262.266 245.383 262.14 245.427C262.015 245.47 261.883 245.488 261.751 245.48Z" fill="white"/>
</g>
<g opacity="0.9">
<path d="M260.87 255C260.871 255.136 260.843 255.27 260.79 255.395C260.737 255.52 260.658 255.632 260.56 255.726C260.462 255.819 260.346 255.892 260.219 255.939C260.091 255.986 259.956 256.007 259.82 256C250.212 255.651 240.763 253.437 232 249.48C231.879 249.42 231.772 249.336 231.684 249.233C231.597 249.131 231.531 249.011 231.491 248.882C231.45 248.753 231.437 248.617 231.45 248.483C231.464 248.349 231.505 248.219 231.57 248.1C231.694 247.876 231.898 247.707 232.142 247.629C232.385 247.551 232.65 247.569 232.88 247.68C241.408 251.494 250.586 253.639 259.92 254C260.177 254.013 260.419 254.124 260.595 254.31C260.772 254.497 260.871 254.744 260.87 255Z" fill="white"/>
</g>
<g opacity="0.9">
<path d="M243.929 271.67C236.129 270.15 232.119 269.11 230.429 268.67C230.3 268.633 230.179 268.569 230.074 268.484C229.97 268.398 229.884 268.293 229.821 268.173C229.758 268.053 229.721 267.922 229.71 267.788C229.7 267.653 229.716 267.518 229.759 267.39C229.842 267.147 230.015 266.945 230.242 266.826C230.469 266.707 230.733 266.68 230.979 266.75C232.599 267.21 236.599 268.24 244.309 269.75C244.569 269.801 244.798 269.952 244.946 270.172C245.094 270.391 245.149 270.66 245.099 270.92C245.04 271.172 244.884 271.392 244.666 271.531C244.448 271.671 244.184 271.721 243.929 271.67Z" fill="white"/>
</g>
<path d="M261.73 183C261.394 183.142 261.015 183.148 260.675 183.015C260.335 182.882 260.061 182.622 259.91 182.29C259.774 181.952 259.728 181.584 259.777 181.223C259.826 180.862 259.968 180.52 260.19 180.23C260.638 179.651 261.222 179.191 261.89 178.89C261.324 179.562 260.929 180.362 260.74 181.22C260.76 182 261 183.25 261.73 183Z" fill="#263238"/>
<path d="M270.08 203.41C270.078 203.502 270.057 203.592 270.017 203.675C269.978 203.758 269.921 203.832 269.851 203.891C269.781 203.951 269.7 203.995 269.612 204.02C269.523 204.046 269.431 204.053 269.34 204.04C269.156 204 268.988 203.91 268.854 203.779C268.719 203.648 268.624 203.482 268.58 203.3C268.505 202.93 268.505 202.549 268.58 202.18C268.64 201.328 268.847 200.492 269.19 199.71C269.535 198.921 270.163 198.29 270.95 197.94C271.09 198.107 271.18 198.31 271.209 198.527C271.237 198.743 271.203 198.963 271.11 199.16C270.904 199.512 270.67 199.846 270.41 200.16C270.108 200.607 269.913 201.116 269.839 201.65C269.764 202.184 269.812 202.728 269.98 203.24C270.06 203.26 270 203.4 270.08 203.41Z" fill="#263238"/>
<path d="M157.409 266.84H86.2086C83.583 266.84 81.0648 267.883 79.2082 269.74C77.3516 271.596 76.3086 274.114 76.3086 276.74V330.86C76.3086 333.486 77.3516 336.004 79.2082 337.86C81.0648 339.717 83.583 340.76 86.2086 340.76H139.999C140.521 344.997 142.574 348.897 145.771 351.726C148.968 354.555 153.089 356.118 157.359 356.12C157.749 356.12 158.139 356.12 158.529 356.06C155.749 352.4 153.479 347.06 151.989 340.76H157.439C160.064 340.76 162.582 339.717 164.439 337.86C166.296 336.004 167.339 333.486 167.339 330.86V276.74C167.339 275.437 167.082 274.147 166.582 272.944C166.083 271.741 165.351 270.649 164.428 269.729C163.506 268.809 162.411 268.081 161.206 267.585C160.002 267.089 158.711 266.836 157.409 266.84Z" fill="#336699"/>
<path opacity="0.4" d="M157.409 266.84H86.2086C83.583 266.84 81.0648 267.883 79.2082 269.74C77.3516 271.596 76.3086 274.114 76.3086 276.74V330.86C76.3086 333.486 77.3516 336.004 79.2082 337.86C81.0648 339.717 83.583 340.76 86.2086 340.76H139.999C140.521 344.997 142.574 348.897 145.771 351.726C148.968 354.555 153.089 356.118 157.359 356.12C157.749 356.12 158.139 356.12 158.529 356.06C155.749 352.4 153.479 347.06 151.989 340.76H157.439C160.064 340.76 162.582 339.717 164.439 337.86C166.296 336.004 167.339 333.486 167.339 330.86V276.74C167.339 275.437 167.082 274.147 166.582 272.944C166.083 271.741 165.351 270.649 164.428 269.729C163.506 268.809 162.411 268.081 161.206 267.585C160.002 267.089 158.711 266.836 157.409 266.84Z" fill="white"/>
<path d="M171.668 289.84L177.208 284.71L181.948 293.48C181.948 293.48 176.458 297.67 173.208 295.09L171.668 289.84Z" fill="#FF8B7B"/>
<path d="M171.668 289.83L167.898 297.85L173.068 302.13L177.588 294.81L171.668 289.83Z" fill="#FF8B7B"/>
<path d="M182.479 285.9L183.389 289.21C183.614 289.983 183.597 290.808 183.34 291.571C183.082 292.335 182.597 293.001 181.949 293.48L179.949 294.81L174.289 284.87L179.139 283.65C179.506 283.574 179.885 283.573 180.253 283.646C180.621 283.719 180.971 283.864 181.282 284.073C181.593 284.283 181.859 284.552 182.064 284.866C182.27 285.18 182.411 285.531 182.479 285.9Z" fill="#FF8B7B"/>
<path d="M171.668 289.84C171.668 289.84 173.668 283.66 173.348 281.77C173.178 280.64 174.348 280.82 175.288 281.16C175.65 281.283 175.967 281.514 176.195 281.821C176.424 282.128 176.554 282.497 176.568 282.88C176.648 284.88 176.568 288.78 175.038 289.03C173.894 289.203 172.766 289.474 171.668 289.84Z" fill="#FF8B7B"/>
<path d="M178.138 296.26C176.584 294.522 174.512 293.33 172.228 292.86L170.548 292.51C169.548 292.31 169.358 292.51 169.238 292.8L168.758 293.55L167.758 295.04C167.098 296.04 166.438 297.04 165.758 298.04C164.428 300.04 163.038 301.91 161.638 303.73C160.327 305.47 158.886 307.108 157.328 308.63L156.918 309.01C156.398 308.45 155.918 307.86 155.398 307.25C153.935 305.399 152.57 303.473 151.308 301.48C150.018 299.48 145.838 293.42 144.698 291.24C144.128 290.16 143.568 289.06 143.038 287.96L142.268 286.31C142.038 285.78 141.758 285.16 141.598 284.76L141.488 284.5C140.668 282.696 139.167 281.289 137.314 280.588C135.46 279.887 133.404 279.948 131.595 280.758C129.786 281.568 128.372 283.061 127.66 284.911C126.949 286.76 126.998 288.817 127.798 290.63C128.158 291.44 128.438 292.02 128.798 292.69L129.798 294.61C130.465 295.883 131.131 297.133 131.798 298.36C133.218 300.83 137.738 307.13 139.398 309.5C141.08 311.913 142.921 314.211 144.908 316.38C146.999 318.687 149.313 320.781 151.818 322.63L152.128 322.86C152.897 323.418 153.783 323.793 154.719 323.957C155.654 324.122 156.615 324.072 157.528 323.81C159.566 323.215 161.466 322.222 163.118 320.89C164.38 319.889 165.555 318.781 166.628 317.58C168.504 315.47 170.213 313.216 171.738 310.84C173.208 308.57 174.498 306.25 175.738 303.93C176.328 302.75 176.908 301.58 177.448 300.38L178.248 298.58L178.638 297.67C178.758 297.35 178.818 297 178.138 296.26Z" fill="#263238"/>
<path opacity="0.4" d="M141.08 293.08L135.58 296.97L134 300.73C134.27 301.23 134.53 301.73 134.81 302.23C136.22 304.7 137.81 307.1 139.43 309.47C141.112 311.882 142.953 314.181 144.94 316.35C145.94 317.35 146.94 318.35 147.94 319.35C145.24 313 141.08 293.08 141.08 293.08Z" fill="black"/>
<path d="M91.9168 323.48C92.3468 333.48 90.7668 333.02 90.7268 340.76H139.457C142.107 317.15 140.867 313.52 140.917 297.85C140.917 289.03 139.567 280.03 130.787 279.11C120.474 278.104 110.085 278.171 99.7868 279.31C98.244 279.498 96.7543 279.992 95.4051 280.763C94.0559 281.535 92.8743 282.568 91.9298 283.802C90.9852 285.036 90.2967 286.447 89.9047 287.951C89.5127 289.455 89.425 291.022 89.6468 292.56C91.6168 305.89 90.5468 313.44 91.9168 323.48Z" fill="#263238"/>
<path opacity="0.9" d="M126.34 278.74C119.847 278.315 113.335 278.295 106.84 278.68C106.98 280.68 108.5 285.68 119.57 290.01C119.57 290.01 122.04 284.65 124.12 287.06C124.12 287.06 125.79 283.98 129.37 289.65C129.37 289.65 134.71 283.93 126.34 278.74Z" fill="white"/>
<path opacity="0.4" d="M100 292.92C101.07 302.19 95.15 317.69 92 325.18C92 324.66 92 324.09 92 323.48C91.14 317.22 91.24 311.92 91 305.6L100 292.92Z" fill="black"/>
<path d="M111.619 261C111.783 267.081 110.609 273.123 108.179 278.7C108.089 278.912 108.066 279.147 108.115 279.373C108.163 279.598 108.28 279.803 108.449 279.96C112.53 283.478 117.762 285.372 123.149 285.28C129.699 285.36 129.319 283.28 127.769 281.01C127.543 280.687 127.25 280.418 126.909 280.22C122.429 277.56 122.269 274 123.529 271.85L111.619 261Z" fill="#FF8B7B"/>
<path opacity="0.2" d="M111.627 261L123.527 271.85C123.129 272.533 122.899 273.301 122.856 274.09C122.812 274.879 122.957 275.667 123.277 276.39C120.766 276.468 118.319 275.593 116.427 273.94C113.357 271.33 112.317 268.25 111.547 263.94C111.607 263 111.627 262 111.627 261Z" fill="black"/>
<path d="M108.079 255.36C108.599 263.36 107.469 264.64 111.529 268.69C117.639 274.78 127.589 275.94 128.999 267.84C130.259 260.54 130.999 247.33 123.109 244.25C121.37 243.558 119.484 243.321 117.628 243.562C115.773 243.803 114.009 244.513 112.504 245.625C111 246.737 109.804 248.215 109.029 249.918C108.255 251.622 107.928 253.495 108.079 255.36Z" fill="#FF8B7B"/>
<path d="M127.499 264C127.499 264 124.689 263.11 116.719 262.77C117.569 265.63 119.239 268.01 123.319 268.14C127.399 268.27 127.499 264 127.499 264Z" fill="#263238"/>
<path d="M121.5 265.81C123.104 265.784 124.665 266.334 125.9 267.36C125.162 267.912 124.249 268.179 123.33 268.11C121.722 268.142 120.158 267.587 118.93 266.55C119.669 266 120.582 265.738 121.5 265.81Z" fill="#FF5652"/>
<path d="M127.138 263.87C126.898 264.46 126.648 265.06 125.848 265.22C123.488 265.109 121.144 264.774 118.848 264.22C118.453 264.149 118.084 263.976 117.777 263.718C117.47 263.46 117.236 263.126 117.098 262.75C120.472 262.815 123.832 263.19 127.138 263.87Z" fill="white"/>
<path d="M124.367 256.53C125.21 258.021 126.257 259.388 127.477 260.59C127.162 260.898 126.783 261.134 126.366 261.279C125.949 261.424 125.506 261.476 125.067 261.43L124.367 256.53Z" fill="#FF5652"/>
<path d="M116.479 253.08C116.411 253.071 116.347 253.039 116.299 252.99C116.261 252.953 116.231 252.908 116.211 252.859C116.19 252.811 116.18 252.758 116.18 252.705C116.18 252.652 116.19 252.599 116.211 252.55C116.231 252.502 116.261 252.457 116.299 252.42C116.713 251.934 117.238 251.553 117.83 251.312C118.422 251.07 119.062 250.973 119.699 251.03C119.805 251.046 119.901 251.103 119.964 251.19C120.028 251.276 120.055 251.384 120.039 251.49C120.023 251.596 119.966 251.691 119.879 251.755C119.793 251.819 119.685 251.846 119.579 251.83C119.073 251.791 118.565 251.873 118.097 252.069C117.629 252.266 117.215 252.571 116.889 252.96C116.839 253.017 116.774 253.058 116.701 253.079C116.629 253.101 116.552 253.101 116.479 253.08Z" fill="#263238"/>
<path d="M129.758 254.5C129.692 254.511 129.625 254.506 129.563 254.485C129.5 254.464 129.443 254.428 129.398 254.38C129.066 254.002 128.649 253.708 128.181 253.524C127.713 253.34 127.208 253.27 126.708 253.32C126.604 253.337 126.498 253.314 126.412 253.254C126.326 253.194 126.267 253.103 126.248 253C126.23 252.894 126.255 252.785 126.317 252.697C126.378 252.609 126.472 252.549 126.578 252.53C127.208 252.46 127.847 252.542 128.44 252.768C129.032 252.994 129.563 253.358 129.988 253.83C130.025 253.867 130.055 253.911 130.076 253.96C130.096 254.009 130.107 254.062 130.107 254.115C130.107 254.168 130.096 254.22 130.076 254.269C130.055 254.318 130.025 254.363 129.988 254.4C129.923 254.456 129.843 254.491 129.758 254.5Z" fill="#263238"/>
<path d="M77.0776 325.11C77.095 325.488 77.152 325.863 77.2476 326.23C78.1511 329.427 79.3253 332.542 80.7576 335.54C81.4843 337.126 82.2343 338.686 83.0076 340.22C84.0378 340.573 85.1187 340.755 86.2076 340.76H96.9976L95.9276 338.37C94.7376 335.76 93.6376 333.14 92.6376 330.55C91.8047 328.449 91.1033 326.298 90.5376 324.11C90.6511 323.272 90.8215 322.444 91.0476 321.63C91.3576 320.43 91.7776 319.13 92.2576 317.81C93.2576 315.18 94.3576 312.47 95.5576 309.81C96.7576 307.15 98.0876 304.42 99.4276 301.73C100.768 299.04 102.168 296.32 103.558 293.78V293.69L103.628 293.54C104.535 291.769 104.701 289.711 104.091 287.818C103.48 285.925 102.143 284.352 100.373 283.445C98.6023 282.538 96.5442 282.371 94.651 282.982C92.7578 283.592 91.1846 284.929 90.2776 286.7C88.7776 289.64 87.4276 292.45 86.0676 295.36C84.7076 298.27 83.4776 301.21 82.2776 304.21C81.0776 307.21 79.9976 310.24 78.9976 313.49C78.5076 315.12 78.0676 316.8 77.6976 318.61C77.2376 320.67 77.0261 322.779 77.0676 324.89L77.0776 325.11Z" fill="#263238"/>
<path d="M104.448 260.72C105.141 262.434 106.46 263.821 108.138 264.6C110.278 265.52 111.458 263.43 110.948 261.03C110.498 258.88 108.828 255.8 106.638 255.9C104.448 256 103.538 258.52 104.448 260.72Z" fill="#FF8B7B"/>
<path d="M118.367 255.8C118.367 256.49 118.657 257.08 119.127 257.11C119.597 257.14 119.987 256.6 120.017 255.89C120.047 255.18 119.727 254.61 119.267 254.58C118.807 254.55 118.407 255.09 118.367 255.8Z" fill="#2E353A"/>
<path d="M126.277 256.26C126.277 256.96 126.577 257.55 127.027 257.58C127.477 257.61 127.887 257.06 127.937 256.36C127.987 255.66 127.637 255.08 127.187 255.05C126.737 255.02 126.317 255.56 126.277 256.26Z" fill="#2E353A"/>
<path d="M149.159 126.57H77.9994C75.3755 126.573 72.8599 127.617 71.0055 129.473C69.151 131.329 68.1094 133.846 68.1094 136.47V190.59C68.1081 191.89 68.3629 193.177 68.8593 194.378C69.3558 195.579 70.0841 196.67 71.0026 197.59C71.9211 198.509 73.0118 199.238 74.2123 199.736C75.4129 200.234 76.6998 200.49 77.9994 200.49H131.769C132.285 204.729 134.334 208.633 137.531 211.464C140.727 214.296 144.849 215.859 149.119 215.86C149.519 215.86 149.909 215.86 150.299 215.8C147.519 212.13 145.239 206.8 143.759 200.49H149.209C151.835 200.49 154.353 199.447 156.21 197.59C158.066 195.734 159.109 193.216 159.109 190.59V136.47C159.108 135.166 158.849 133.875 158.348 132.671C157.847 131.468 157.113 130.374 156.189 129.455C155.265 128.535 154.168 127.807 152.962 127.312C151.755 126.817 150.463 126.565 149.159 126.57Z" fill="#336699"/>
<path opacity="0.4" d="M149.159 126.57H77.9994C75.3755 126.573 72.8599 127.617 71.0055 129.473C69.151 131.329 68.1094 133.846 68.1094 136.47V190.59C68.1081 191.89 68.3629 193.177 68.8593 194.378C69.3558 195.579 70.0841 196.67 71.0026 197.59C71.9211 198.509 73.0118 199.238 74.2123 199.736C75.4129 200.234 76.6998 200.49 77.9994 200.49H131.769C132.285 204.729 134.334 208.633 137.531 211.464C140.727 214.296 144.849 215.859 149.119 215.86C149.519 215.86 149.909 215.86 150.299 215.8C147.519 212.13 145.239 206.8 143.759 200.49H149.209C151.835 200.49 154.353 199.447 156.21 197.59C158.066 195.734 159.109 193.216 159.109 190.59V136.47C159.108 135.166 158.849 133.875 158.348 132.671C157.847 131.468 157.113 130.374 156.189 129.455C155.265 128.535 154.168 127.807 152.962 127.312C151.755 126.817 150.463 126.565 149.159 126.57Z" fill="white"/>
<path d="M131.72 200.49C131.312 194.677 131.312 188.843 131.72 183.03C132.34 172.79 129.28 161.72 126.97 159.83C123.64 157.08 120.54 154.49 119.44 157.95C118.8 159.95 118.61 163.25 118.65 166.95C118.75 175.89 120.65 187.04 121.55 192.19C121.88 194.01 122.71 200.5 122.71 200.5L131.72 200.49Z" fill="#336699"/>
<path d="M125.5 160.27C125.386 159.535 125.062 158.848 124.567 158.293C124.072 157.738 123.427 157.337 122.71 157.14C120.21 156.47 115.89 155.38 111.96 154.68C107.329 153.927 102.65 153.5 97.9597 153.4C94.9597 153.28 92.0797 153.4 89.7697 153.5C89.4959 153.521 89.2248 153.568 88.9597 153.64C88.4717 153.778 88.0157 154.011 87.6179 154.326C87.2201 154.641 86.8881 155.031 86.6411 155.474C86.3941 155.917 86.2368 156.404 86.1782 156.908C86.1196 157.412 86.1609 157.922 86.2997 158.41C92.2297 179.58 93.4597 189.71 93.7697 200.49H122.71C124.06 190.71 126.71 182.68 126.95 176.93C127.156 171.338 126.669 165.742 125.5 160.27Z" fill="#336699"/>
<path opacity="0.8" d="M125.5 160.27C125.386 159.535 125.062 158.848 124.567 158.293C124.072 157.738 123.427 157.337 122.71 157.14C120.21 156.47 115.89 155.38 111.96 154.68C107.329 153.927 102.65 153.5 97.9597 153.4C94.9597 153.28 92.0797 153.4 89.7697 153.5C89.4959 153.521 89.2248 153.568 88.9597 153.64C88.4717 153.778 88.0157 154.011 87.6179 154.326C87.2201 154.641 86.8881 155.031 86.6411 155.474C86.3941 155.917 86.2368 156.404 86.1782 156.908C86.1196 157.412 86.1609 157.922 86.2997 158.41C92.2297 179.58 93.4597 189.71 93.7697 200.49H122.71C124.06 190.71 126.71 182.68 126.95 176.93C127.156 171.338 126.669 165.742 125.5 160.27Z" fill="white"/>
<path d="M113.611 149.79C111.711 152.36 110.321 155.41 113.301 158.79C113.947 159.495 114.326 160.405 114.371 161.36C114.371 162.89 113.521 164.36 108.541 161.44C101.321 157.2 101.931 152.44 101.931 152.44C105.721 151.29 107.991 143.32 108.871 138.76L113.611 149.79Z" fill="#FFB573"/>
<path opacity="0.2" d="M109.271 145.57C108.721 147.51 110.771 150.57 112.331 151.83C112.694 151.127 113.119 150.458 113.601 149.83L110.801 143.28C110.146 143.936 109.626 144.714 109.271 145.57Z" fill="black"/>
<path d="M128.268 125.81C130.808 129.03 125.088 138.73 124.468 136.7C123.468 133.4 122.008 126.7 122.028 123.95C122.068 119.61 125.738 122.6 128.268 125.81Z" fill="#263238"/>
<path d="M107.211 126.82C107.885 125.673 108.778 124.67 109.84 123.868C110.902 123.066 112.112 122.481 113.4 122.147C114.688 121.812 116.029 121.735 117.347 121.919C118.665 122.104 119.934 122.546 121.081 123.22C127.891 127.16 127.371 138.22 124.871 144.58C122.131 151.67 112.871 152.58 108.081 146.13C104.861 141.83 105.271 138.7 105.841 131.29C105.94 129.713 106.41 128.182 107.211 126.82Z" fill="#FFB573"/>
<path d="M116.26 135C116.21 135.61 116.48 136.13 116.87 136.17C117.26 136.21 117.63 135.75 117.7 135.17C117.77 134.59 117.48 134.04 117.09 134C116.7 133.96 116.35 134.47 116.26 135Z" fill="#263238"/>
<path d="M116.891 134.09L118.381 133.82C118.381 133.82 117.541 134.84 116.891 134.09Z" fill="#263238"/>
<path d="M123.84 136.73C123.84 137.34 124.06 137.86 124.45 137.9C124.84 137.94 125.21 137.48 125.28 136.9C125.35 136.32 125.06 135.77 124.67 135.73C124.28 135.69 123.93 136.16 123.84 136.73Z" fill="#263238"/>
<path d="M124.469 135.78L125.959 135.51C125.959 135.51 125.119 136.53 124.469 135.78Z" fill="#263238"/>
<path d="M121 141.3C121.351 141.443 121.728 141.507 122.106 141.49C122.484 141.473 122.854 141.374 123.19 141.2C122.47 139.906 121.932 138.52 121.59 137.08L121 141.3Z" fill="#ED893E"/>
<path d="M115.289 141.05C115.27 141.007 115.268 140.959 115.283 140.915C115.298 140.871 115.328 140.833 115.369 140.81C115.411 140.789 115.46 140.786 115.505 140.801C115.55 140.816 115.588 140.848 115.609 140.89C115.978 141.546 116.498 142.105 117.126 142.52C117.753 142.936 118.471 143.196 119.219 143.28C119.262 143.292 119.3 143.318 119.325 143.355C119.351 143.391 119.363 143.436 119.359 143.48C119.357 143.502 119.35 143.523 119.339 143.543C119.328 143.562 119.313 143.579 119.295 143.592C119.277 143.605 119.256 143.614 119.235 143.619C119.213 143.624 119.191 143.624 119.169 143.62C118.881 143.588 118.597 143.532 118.319 143.45C117.68 143.271 117.083 142.967 116.563 142.555C116.042 142.143 115.609 141.631 115.289 141.05Z" fill="#263238"/>
<path d="M116 131.15C115.944 131.076 115.92 130.982 115.933 130.89C115.946 130.799 115.995 130.716 116.07 130.66C116.664 130.3 117.328 130.071 118.018 129.988C118.708 129.905 119.407 129.971 120.07 130.18C120.158 130.212 120.23 130.276 120.271 130.36C120.312 130.444 120.319 130.541 120.29 130.63C120.26 130.717 120.197 130.789 120.115 130.83C120.032 130.871 119.937 130.879 119.85 130.85C119.297 130.672 118.714 130.612 118.136 130.674C117.559 130.736 117.002 130.918 116.5 131.21C116.441 131.256 116.369 131.281 116.295 131.281C116.22 131.281 116.148 131.256 116.09 131.21L116 131.15Z" fill="#263238"/>
<path d="M126.908 133.46C126.668 133.084 126.341 132.772 125.954 132.549C125.568 132.326 125.134 132.2 124.688 132.18C124.641 132.182 124.595 132.173 124.551 132.156C124.507 132.14 124.468 132.114 124.434 132.081C124.401 132.049 124.374 132.01 124.356 131.967C124.337 131.923 124.328 131.877 124.328 131.83C124.328 131.736 124.365 131.646 124.43 131.579C124.495 131.512 124.584 131.473 124.678 131.47C125.24 131.49 125.789 131.644 126.28 131.918C126.77 132.193 127.188 132.581 127.498 133.05C127.524 133.088 127.542 133.131 127.551 133.176C127.56 133.22 127.56 133.267 127.55 133.312C127.541 133.356 127.523 133.399 127.497 133.436C127.47 133.474 127.437 133.506 127.398 133.53C127.346 133.564 127.285 133.582 127.223 133.582C127.161 133.582 127.1 133.564 127.048 133.53L126.908 133.46Z" fill="#263238"/>
<path d="M117.811 125.34C116.694 125.55 115.637 126.005 114.717 126.672C113.797 127.34 113.037 128.203 112.491 129.2C111.981 130.14 108.701 132.2 108.141 133.13C106.381 136.06 108.301 144.4 107.471 145.03C106.641 145.66 106.931 143.19 106.141 142.71C105.303 142.332 104.5 141.88 103.741 141.36C102.741 140.52 99.271 131.47 103.551 125.99C105.681 123.1 108.798 121.092 112.311 120.35C115.87 119.745 119.523 120.576 122.471 122.66C123.401 123.33 125.031 125.16 122.471 125.98C121.771 126.2 121.741 125.64 121.011 125.46C119.965 125.19 118.874 125.149 117.811 125.34Z" fill="#263238"/>
<path d="M100.79 133.13C103.26 130.73 106.34 130.73 109.06 130.73C110.352 130.832 111.652 130.686 112.89 130.3C115.63 129.11 117.31 125.2 117.62 123.92C117.786 123.396 118.082 122.923 118.481 122.545C118.88 122.167 119.368 121.897 119.9 121.76C120.333 121.739 120.765 121.818 121.162 121.991C121.56 122.165 121.911 122.428 122.19 122.76C122.68 123.47 122.63 124.5 122.04 125.76L122.43 125.93C123.08 124.48 123.11 123.32 122.54 122.48C122.218 122.091 121.81 121.781 121.349 121.574C120.888 121.368 120.385 121.271 119.88 121.29C119.255 121.429 118.678 121.733 118.209 122.168C117.74 122.604 117.395 123.157 117.21 123.77C116.93 124.95 115.28 128.77 112.72 129.87C111.536 130.234 110.294 130.366 109.06 130.26C106.4 130.26 103.06 130.26 100.5 132.78L100.79 133.13Z" fill="#263238"/>
<path opacity="0.1" d="M100.79 133.13C103.26 130.73 106.34 130.73 109.06 130.73C110.352 130.832 111.652 130.686 112.89 130.3C115.63 129.11 117.31 125.2 117.62 123.92C117.786 123.396 118.082 122.923 118.481 122.545C118.88 122.167 119.368 121.897 119.9 121.76C120.333 121.739 120.765 121.818 121.162 121.991C121.56 122.165 121.911 122.428 122.19 122.76C122.68 123.47 122.63 124.5 122.04 125.76L122.43 125.93C123.08 124.48 123.11 123.32 122.54 122.48C122.218 122.091 121.81 121.781 121.349 121.574C120.888 121.368 120.385 121.271 119.88 121.29C119.255 121.429 118.678 121.733 118.209 122.168C117.74 122.604 117.395 123.157 117.21 123.77C116.93 124.95 115.28 128.77 112.72 129.87C111.536 130.234 110.294 130.366 109.06 130.26C106.4 130.26 103.06 130.26 100.5 132.78L100.79 133.13Z" fill="white"/>
<path d="M102.91 135.94C102.951 135.623 103.054 135.316 103.213 135.039C103.372 134.761 103.585 134.518 103.839 134.323C104.092 134.128 104.382 133.985 104.691 133.902C105 133.819 105.323 133.798 105.64 133.84C107.48 134.12 108.32 136.6 108.32 138.22C108.32 140.01 106.99 141.34 105.37 140.33C104.156 139.556 103.297 138.334 102.98 136.93C102.887 136.609 102.863 136.271 102.91 135.94Z" fill="#FFB573"/>
<path d="M106.179 162.33C105.789 167.45 101.059 186.79 90.8087 187.33C89.1756 187.376 87.5846 186.809 86.3487 185.74C78.0887 180.74 84.5787 156.64 86.2387 155.24C86.9595 154.622 87.8238 154.194 88.7524 153.996C89.6811 153.799 90.6446 153.837 91.5548 154.107C92.4649 154.378 93.2928 154.872 93.9625 155.545C94.6323 156.218 95.1226 157.049 95.3887 157.96C95.6045 157.198 95.7748 156.423 95.8987 155.64C96.3287 153.03 97.7487 146.95 100.369 146.51C101.949 146.24 105.199 146.1 106.139 147.39C107.079 148.68 106.829 153.88 106.179 162.33Z" fill="#336699"/>
<g opacity="0.2">
<path d="M105.641 133.84V134.29L106.111 138.73V144.45L106.891 141.05C107.089 140.164 107.133 139.251 107.021 138.35L106.471 134.09L105.641 133.84Z" fill="black"/>
</g>
<path d="M100.5 147.54L99.2695 138.63L106.7 138.57C106.7 138.57 106.09 145.26 104.23 147.57L100.5 147.54Z" fill="#FFB573"/>
<path d="M100.58 132.54L106.08 133.51L106.67 138.55L99.2695 138.63L100.58 132.54Z" fill="#FFB573"/>
<path opacity="0.2" d="M93.1087 166.07C93.1087 166.07 88.6587 176.35 88.5187 172.28C88.3787 167.85 93.1087 166.07 93.1087 166.07Z" fill="black"/>
<path d="M367.391 226.18H339.871C338.611 226.18 337.403 226.681 336.512 227.571C335.622 228.462 335.121 229.67 335.121 230.93V248.65C335.124 249.908 335.625 251.114 336.516 252.002C337.406 252.891 338.613 253.39 339.871 253.39H347.781L351.311 258.01C351.583 258.367 351.933 258.656 352.334 258.855C352.736 259.054 353.178 259.157 353.626 259.157C354.074 259.157 354.516 259.054 354.918 258.855C355.319 258.656 355.67 258.367 355.941 258.01L359.471 253.39H367.391C368.648 253.39 369.854 252.891 370.743 252.002C371.632 251.113 372.131 249.907 372.131 248.65V230.93C372.131 229.672 371.632 228.465 370.743 227.575C369.855 226.684 368.649 226.183 367.391 226.18Z" fill="#336699"/>
<path opacity="0.7" d="M367.391 226.18H339.871C338.611 226.18 337.403 226.681 336.512 227.571C335.622 228.462 335.121 229.67 335.121 230.93V248.65C335.124 249.908 335.625 251.114 336.516 252.002C337.406 252.891 338.613 253.39 339.871 253.39H347.781L351.311 258.01C351.583 258.367 351.933 258.656 352.334 258.855C352.736 259.054 353.178 259.157 353.626 259.157C354.074 259.157 354.516 259.054 354.918 258.855C355.319 258.656 355.67 258.367 355.941 258.01L359.471 253.39H367.391C368.648 253.39 369.854 252.891 370.743 252.002C371.632 251.113 372.131 249.907 372.131 248.65V230.93C372.131 229.672 371.632 228.465 370.743 227.575C369.855 226.684 368.649 226.183 367.391 226.18Z" fill="white"/>
<path d="M365.792 238.36L357.002 233V236.22H353.002C350.414 236.22 347.931 237.248 346.101 239.079C344.27 240.909 343.242 243.391 343.242 245.98C343.245 246.703 343.326 247.424 343.482 248.13C343.973 245.971 345.183 244.043 346.912 242.661C348.641 241.278 350.788 240.524 353.002 240.52H357.002V243.75L365.792 238.36Z" fill="#336699"/>
<path d="M173.751 117.72H194.851C195.817 117.72 196.742 118.104 197.425 118.786C198.108 119.469 198.491 120.395 198.491 121.36V135C198.491 135.478 198.397 135.951 198.214 136.392C198.031 136.833 197.763 137.233 197.424 137.571C197.086 137.908 196.685 138.175 196.243 138.357C195.802 138.539 195.329 138.632 194.851 138.63H188.781L186.081 142.18C185.873 142.454 185.605 142.676 185.297 142.828C184.989 142.981 184.65 143.06 184.306 143.06C183.962 143.06 183.623 142.981 183.316 142.828C183.008 142.676 182.739 142.454 182.531 142.18L179.821 138.63H173.751C173.274 138.632 172.801 138.539 172.36 138.357C171.919 138.175 171.519 137.907 171.181 137.57C170.844 137.233 170.577 136.832 170.395 136.391C170.213 135.95 170.12 135.477 170.121 135V121.36C170.12 120.883 170.213 120.41 170.395 119.968C170.576 119.526 170.844 119.125 171.181 118.787C171.518 118.449 171.919 118.181 172.36 117.997C172.801 117.814 173.274 117.72 173.751 117.72Z" fill="#336699"/>
<path opacity="0.7" d="M173.751 117.72H194.851C195.817 117.72 196.742 118.104 197.425 118.786C198.108 119.469 198.491 120.395 198.491 121.36V135C198.491 135.478 198.397 135.951 198.214 136.392C198.031 136.833 197.763 137.233 197.424 137.571C197.086 137.908 196.685 138.175 196.243 138.357C195.802 138.539 195.329 138.632 194.851 138.63H188.781L186.081 142.18C185.873 142.454 185.605 142.676 185.297 142.828C184.989 142.981 184.65 143.06 184.306 143.06C183.962 143.06 183.623 142.981 183.316 142.828C183.008 142.676 182.739 142.454 182.531 142.18L179.821 138.63H173.751C173.274 138.632 172.801 138.539 172.36 138.357C171.919 138.175 171.519 137.907 171.181 137.57C170.844 137.233 170.577 136.832 170.395 136.391C170.213 135.95 170.12 135.477 170.121 135V121.36C170.12 120.883 170.213 120.41 170.395 119.968C170.576 119.526 170.844 119.125 171.181 118.787C171.518 118.449 171.919 118.181 172.36 117.997C172.801 117.814 173.274 117.72 173.751 117.72Z" fill="white"/>
<path d="M175 127.06L181.76 122.94V125.41H184.85C185.972 125.414 187.078 125.668 188.088 126.156C189.099 126.643 189.987 127.351 190.687 128.227C191.387 129.103 191.883 130.125 192.136 131.217C192.389 132.31 192.394 133.446 192.15 134.54C191.774 132.885 190.847 131.407 189.52 130.348C188.194 129.289 186.547 128.711 184.85 128.71H181.76V131.18L175 127.06Z" fill="#336699"/>
</svg>
