<svg width="12" height="12" viewBox="0 0 12 12" fill="none" xmlns="http://www.w3.org/2000/svg">
<path d="M8.67324 2.56229H11.342V3.6298H10.2745V10.5685C10.2745 10.718 10.2229 10.8443 10.1197 10.9475C10.0165 11.0507 9.89019 11.1023 9.74074 11.1023H2.26824C2.11879 11.1023 1.99247 11.0507 1.88928 10.9475C1.78609 10.8443 1.73449 10.718 1.73449 10.5685V3.6298H0.666992V2.56229H3.33574V0.961045C3.33574 0.811595 3.38734 0.685274 3.49053 0.582083C3.59372 0.47889 3.72004 0.427295 3.86949 0.427295H8.13949C8.28894 0.427295 8.41526 0.47889 8.51845 0.582083C8.62165 0.685274 8.67324 0.811595 8.67324 0.961045V2.56229ZM9.20699 3.6298H2.80199V10.0348H9.20699V3.6298ZM4.40324 5.23104H5.47074V8.43354H4.40324V5.23104ZM6.53824 5.23104H7.60574V8.43354H6.53824V5.23104ZM4.40324 1.49479V2.56229H7.60574V1.49479H4.40324Z" fill="#E6533C"/>
</svg>
