<svg width="27" height="28" viewBox="0 0 27 28" fill="none" xmlns="http://www.w3.org/2000/svg">
<path d="M0.577365 13.4412C0.576732 15.7271 1.17401 17.959 2.30972 19.9263L0.46875 26.648L7.34757 24.8444C9.25016 25.8802 11.3819 26.4229 13.5481 26.423H13.5538C20.705 26.423 26.5263 20.6039 26.5293 13.4514C26.5307 9.98553 25.1822 6.72645 22.7321 4.27449C20.2825 1.82274 17.0245 0.471797 13.5533 0.470215C6.40125 0.470215 0.580423 6.28903 0.577471 13.4412" fill="url(#paint0_linear_205_4765)"/>
<path d="M0.112833 13.4362C0.112095 15.8043 0.730779 18.1162 1.90699 20.1539L0 27.1166L7.12547 25.2483C9.08877 26.3187 11.2992 26.8831 13.5485 26.8839H13.5543C20.9621 26.8839 26.9924 20.8555 26.9956 13.447C26.9969 9.85656 25.5998 6.48032 23.0623 3.94052C20.5244 1.40103 17.1499 0.00147632 13.5543 0C6.1453 0 0.115891 6.02761 0.112939 13.4362H0.112833ZM4.3562 19.803L4.09015 19.3806C2.97173 17.6023 2.38141 15.5473 2.38226 13.4371C2.38468 7.27922 7.39616 2.26932 13.5585 2.26932C16.5428 2.27058 19.3474 3.43393 21.4569 5.54464C23.5662 7.65557 24.7269 10.4616 24.7262 13.4461C24.7234 19.604 19.7119 24.6145 13.5543 24.6145H13.5499C11.5449 24.6135 9.57859 24.075 7.86374 23.0575L7.45564 22.8155L3.22724 23.9241L4.3562 19.8029V19.803Z" fill="url(#paint1_linear_205_4765)"/>
<path d="M10.1931 7.81907C9.94146 7.25986 9.67667 7.24858 9.4374 7.23877C9.24147 7.23033 9.01749 7.23097 8.79372 7.23097C8.56975 7.23097 8.20583 7.31522 7.89823 7.65109C7.59031 7.98727 6.72266 8.79967 6.72266 10.452C6.72266 12.1044 7.92618 13.7013 8.09395 13.9256C8.26193 14.1494 10.4174 17.6487 13.831 18.9949C16.6681 20.1137 17.2455 19.8912 17.8612 19.8351C18.477 19.7792 19.8483 19.0229 20.1281 18.2386C20.4081 17.4545 20.4081 16.7823 20.3241 16.6419C20.2402 16.502 20.0162 16.4179 19.6803 16.25C19.3444 16.082 17.6932 15.2695 17.3854 15.1574C17.0775 15.0455 16.8536 14.9896 16.6296 15.3259C16.4056 15.6616 15.7625 16.4179 15.5665 16.6419C15.3706 16.8664 15.1746 16.8943 14.8388 16.7264C14.5028 16.5578 13.4212 16.2036 12.1379 15.0596C11.1395 14.1694 10.4654 13.07 10.2695 12.7337C10.0736 12.398 10.2485 12.216 10.4169 12.0486C10.5678 11.8981 10.7529 11.6565 10.921 11.4604C11.0885 11.2643 11.1443 11.1243 11.2563 10.9004C11.3684 10.6762 11.3123 10.48 11.2285 10.3121C11.1443 10.1441 10.4917 8.48321 10.1931 7.81918" fill="white"/>
<defs>
<linearGradient id="paint0_linear_205_4765" x1="13.499" y1="26.648" x2="13.499" y2="0.470215" gradientUnits="userSpaceOnUse">
<stop stop-color="#1FAF38"/>
<stop offset="1" stop-color="#60D669"/>
</linearGradient>
<linearGradient id="paint1_linear_205_4765" x1="13.4978" y1="27.1166" x2="13.4978" y2="0" gradientUnits="userSpaceOnUse">
<stop stop-color="#F9F9F9"/>
<stop offset="1" stop-color="white"/>
</linearGradient>
</defs>
</svg>
